<svg width="20" height="26" viewBox="0 0 20 26" fill="none" xmlns="http://www.w3.org/2000/svg">
<path d="M5.35534 3C1.87152 3 0.999608 3 1 5.41436C1.00057 8.9022 1 18.0244 1 22.8537C1.00001 24.1949 1.58064 25 2.74191 25C4.59995 25 14.9353 25 16.6775 25C17.4516 25 19 25 19 22.8537C19 21.1366 19 9.97556 19 4.60968C19 4.07312 18.7097 3 17.5484 3C16.3871 3 15.0326 3 14.6455 3" stroke="#BBBBBB" stroke-width="2"/>
<rect x="6" y="1" width="8" height="4" rx="2" stroke="#BBBBBB" stroke-width="2"/>
<path d="M15.3483 10L8.80449 17.5955L6 14.7472" stroke="#BBBBBB" stroke-width="2" stroke-linecap="round" stroke-linejoin="round"/>
</svg>
