<svg width="20" height="27" viewBox="0 0 20 27" fill="none" xmlns="http://www.w3.org/2000/svg">
<rect x="1" y="4" width="18" height="22" fill="#4AAC8D"/>
<path d="M5.35534 4C1.87152 4 0.999608 4 1 6.41436C1.00057 9.9022 1 19.0244 1 23.8537C1.00001 25.1949 1.58064 26 2.74191 26C4.59995 26 14.9353 26 16.6775 26C17.4516 26 19 26 19 23.8537C19 22.1366 19 10.9756 19 5.60968C19 5.07312 18.7097 4 17.5484 4C16.3871 4 15.0326 4 14.6455 4" stroke="#4AAC8D" stroke-width="2"/>
<rect x="5.5" y="0.5" width="9" height="6" rx="3" fill="#4AAC8D" stroke="#FDFDFD"/>
<path d="M15.3483 11L8.80449 18.5955L6 15.7472" stroke="#FDFDFD" stroke-width="2" stroke-linecap="round" stroke-linejoin="round"/>
</svg>
