<svg width="23" height="25" viewBox="0 0 23 25" fill="none" xmlns="http://www.w3.org/2000/svg">
<path d="M20.7596 17.6556C19.3746 15.9304 18.3969 15.0521 18.3969 10.2958C18.3969 5.94021 16.2116 4.38843 14.4129 3.63478C14.174 3.53487 13.9491 3.30543 13.8763 3.05567C13.5608 1.96279 12.6764 1 11.5006 1C10.3249 1 9.43992 1.96334 9.12766 3.05677C9.05485 3.30927 8.82995 3.53487 8.59104 3.63478C6.79026 4.38953 4.60711 5.93581 4.60711 10.2958C4.60442 15.0521 3.62664 15.9304 2.24168 17.6556C1.66785 18.3703 2.17049 19.4434 3.17415 19.4434H19.8325C20.8308 19.4434 21.3302 18.367 20.7596 17.6556Z" stroke="#BBBBBB" stroke-width="2" stroke-linecap="round" stroke-linejoin="round"/>
<path d="M14.9516 19.4436V20.3219C14.9516 21.2536 14.5879 22.1471 13.9406 22.806C13.2933 23.4648 12.4154 23.8349 11.5 23.8349C10.5845 23.8349 9.7066 23.4648 9.05929 22.806C8.41199 22.1471 8.04834 21.2536 8.04834 20.3219V19.4436" stroke="#BBBBBB" stroke-width="2" stroke-linecap="round" stroke-linejoin="round"/>
</svg>
