<svg width="21" height="26" viewBox="0 0 21 26" fill="none" xmlns="http://www.w3.org/2000/svg">
<path d="M10.1042 4.95833C11.1972 4.95833 12.0833 4.07223 12.0833 2.97917C12.0833 1.8861 11.1972 1 10.1042 1C9.0111 1 8.125 1.8861 8.125 2.97917C8.125 4.07223 9.0111 4.95833 10.1042 4.95833Z" stroke="#BBBBBB" stroke-width="2" stroke-miterlimit="10"/>
<path d="M7.69453 14.835L6.19036 23.3553C6.16332 23.509 6.16683 23.6665 6.2007 23.8188C6.23456 23.9712 6.29811 24.1153 6.38772 24.2431C6.47732 24.3708 6.59123 24.4796 6.72292 24.5633C6.85461 24.647 7.0015 24.704 7.15521 24.7309C7.30832 24.7581 7.46532 24.7547 7.61711 24.7208C7.76889 24.6869 7.91245 24.6233 8.03947 24.5336C8.16648 24.4438 8.27443 24.3298 8.35706 24.198C8.43969 24.0663 8.49535 23.9194 8.52083 23.766L9.5599 17.8335V17.8434C9.5599 17.8434 9.81719 16.2353 10.4258 16.2353H10.5792C11.1977 16.2353 11.4451 17.8434 11.4451 17.8434V17.8384L12.4841 23.771C12.5392 24.08 12.7149 24.3545 12.9724 24.534C13.2298 24.7136 13.5481 24.7835 13.8572 24.7284C14.1662 24.6733 14.4407 24.4976 14.6202 24.2401C14.7998 23.9827 14.8697 23.6644 14.8146 23.3553L13.3104 14.835L13.068 13.3655C12.9245 12.4699 12.8602 11.0103 13.0927 10.4116C13.2906 9.897 13.7918 9.70898 14.2406 9.70898H18.8125C19.1274 9.70898 19.4295 9.58387 19.6522 9.36117C19.8749 9.13847 20 8.83643 20 8.52148C20 8.20654 19.8749 7.90449 19.6522 7.68179C19.4295 7.4591 19.1274 7.33398 18.8125 7.33398H2.1875C1.87256 7.33398 1.57051 7.4591 1.34781 7.68179C1.12511 7.90449 1 8.20654 1 8.52148C1 8.83643 1.12511 9.13847 1.34781 9.36117C1.57051 9.58387 1.87256 9.70898 2.1875 9.70898H6.76432C7.22102 9.70898 7.71432 9.897 7.91224 10.4116C8.14479 11.0103 8.08047 12.4699 7.93698 13.3655L7.69453 14.835Z" stroke="#BBBBBB" stroke-width="2" stroke-miterlimit="10"/>
</svg>
