<svg width="21" height="26" viewBox="0 0 21 26" fill="none" xmlns="http://www.w3.org/2000/svg">
<path d="M10.1042 4.95833C11.1972 4.95833 12.0833 4.07223 12.0833 2.97917C12.0833 1.8861 11.1972 1 10.1042 1C9.0111 1 8.125 1.8861 8.125 2.97917C8.125 4.07223 9.0111 4.95833 10.1042 4.95833Z" fill="#4AAC8D" stroke="#4AAC8D" stroke-width="2" stroke-miterlimit="10"/>
<path d="M7.69453 14.8351L6.19036 23.3555C6.16332 23.5091 6.16683 23.6666 6.2007 23.819C6.23456 23.9713 6.29811 24.1154 6.38772 24.2432C6.47732 24.3709 6.59123 24.4798 6.72292 24.5635C6.85461 24.6472 7.0015 24.7041 7.15521 24.731C7.30832 24.7582 7.46532 24.7548 7.61711 24.7209C7.76889 24.6871 7.91245 24.6234 8.03947 24.5337C8.16648 24.4439 8.27443 24.3299 8.35706 24.1981C8.43969 24.0664 8.49535 23.9196 8.52083 23.7661L9.5599 17.8336V17.8435C9.5599 17.8435 9.81719 16.2354 10.4258 16.2354H10.5792C11.1977 16.2354 11.4451 17.8435 11.4451 17.8435V17.8385L12.4841 23.7711C12.5392 24.0801 12.7149 24.3546 12.9724 24.5342C13.2298 24.7137 13.5481 24.7836 13.8572 24.7285C14.1662 24.6734 14.4407 24.4978 14.6202 24.2403C14.7998 23.9828 14.8697 23.6645 14.8146 23.3555L13.3104 14.8351L13.068 13.3656C12.9245 12.47 12.8602 11.0104 13.0927 10.4117C13.2906 9.89713 13.7918 9.70911 14.2406 9.70911H18.8125C19.1274 9.70911 19.4295 9.584 19.6522 9.3613C19.8749 9.1386 20 8.83655 20 8.52161C20 8.20666 19.8749 7.90462 19.6522 7.68192C19.4295 7.45922 19.1274 7.33411 18.8125 7.33411H2.1875C1.87256 7.33411 1.57051 7.45922 1.34781 7.68192C1.12511 7.90462 1 8.20666 1 8.52161C1 8.83655 1.12511 9.1386 1.34781 9.3613C1.57051 9.584 1.87256 9.70911 2.1875 9.70911H6.76432C7.22102 9.70911 7.71432 9.89713 7.91224 10.4117C8.14479 11.0104 8.08047 12.47 7.93698 13.3656L7.69453 14.8351Z" fill="#4AAC8D" stroke="#4AAC8D" stroke-width="2" stroke-miterlimit="10"/>
</svg>
